<svg width="21" height="20" viewBox="0 0 21 20" fill="none" xmlns="http://www.w3.org/2000/svg">
    <path d="M7.80013 14.375C7.45495 14.375 7.17513 14.6548 7.17513 15C7.17513 15.3452 7.45495 15.625 7.80013 15.625H12.8001C13.1453 15.625 13.4251 15.3452 13.4251 15C13.4251 14.6548 13.1453 14.375 12.8001 14.375H7.80013Z" fill="#F5F5F5" fill-opacity="0.5"/>
    <path fill-rule="evenodd" clip-rule="evenodd" d="M10.3001 1.04166C9.71003 1.04166 9.1739 1.21067 8.59226 1.49352C8.03 1.76694 7.38048 2.17006 6.56918 2.67359L4.84703 3.7424C4.07937 4.21883 3.46467 4.60032 2.99088 4.96316C2.50025 5.3389 2.12342 5.72157 1.85122 6.21885C1.57959 6.71509 1.45727 7.24311 1.39862 7.86724C1.34178 8.47211 1.34179 9.21175 1.3418 10.1393V11.4832C1.34179 13.0698 1.34178 14.3221 1.46905 15.3013C1.59961 16.3058 1.87393 17.1167 2.49376 17.7579C3.11645 18.402 3.90884 18.6897 4.8898 18.8261C5.84054 18.9583 7.05476 18.9583 8.585 18.9583H12.0152C13.5454 18.9583 14.7597 18.9583 15.7105 18.8261C16.6914 18.6897 17.4838 18.402 18.1065 17.7579C18.7263 17.1167 19.0007 16.3058 19.1312 15.3013C19.2585 14.3221 19.2585 13.0698 19.2585 11.4832V10.1393C19.2585 9.21177 19.2585 8.47209 19.2016 7.86724C19.143 7.24311 19.0207 6.71509 18.749 6.21885C18.4768 5.72157 18.1 5.3389 17.6094 4.96316C17.1356 4.60033 16.5209 4.21884 15.7532 3.74242L14.0311 2.67359C13.2198 2.17006 12.5703 1.76694 12.008 1.49352C11.4264 1.21067 10.8902 1.04166 10.3001 1.04166ZM7.19974 3.75342C8.0462 3.22808 8.64138 2.8596 9.13892 2.61765C9.62365 2.38193 9.96695 2.29166 10.3001 2.29166C10.6333 2.29166 10.9766 2.38193 11.4613 2.61765C11.9589 2.8596 12.5541 3.22808 13.4005 3.75342L15.0672 4.7878C15.8679 5.28473 16.43 5.63445 16.8494 5.95557C17.2574 6.26803 17.4921 6.52587 17.6526 6.81903C17.8136 7.11323 17.9076 7.4572 17.9571 7.98419C18.0078 8.52381 18.0085 9.20484 18.0085 10.1699V11.4375C18.0085 13.0799 18.0072 14.251 17.8916 15.1402C17.7781 16.0136 17.5643 16.5203 17.2078 16.889C16.8542 17.2548 16.3727 17.472 15.5383 17.588C14.6836 17.7069 13.5564 17.7083 11.9668 17.7083H8.63346C7.04386 17.7083 5.91666 17.7069 5.06198 17.588C4.22751 17.472 3.74608 17.2548 3.39245 16.889C3.03597 16.5203 2.82214 16.0136 2.70862 15.1402C2.59304 14.251 2.5918 13.0799 2.5918 11.4375V10.1699C2.5918 9.20484 2.59243 8.52381 2.64314 7.98419C2.69266 7.4572 2.78667 7.11323 2.94771 6.81903C3.10818 6.52587 3.3429 6.26803 3.7509 5.95557C4.17021 5.63445 4.73238 5.28474 5.53307 4.7878L7.19974 3.75342Z" fill="#F5F5F5" fill-opacity="0.5"/>
</svg>
